<?xml version="1.0" encoding="UTF-8" ?>
<!DOCTYPE svg PUBLIC "-//W3C//DTD SVG 1.1//EN" "http://www.w3.org/Graphics/SVG/1.1/DTD/svg11.dtd">
<svg width="230pt" height="192pt" viewBox="0 0 230 192" version="1.1" xmlns="http://www.w3.org/2000/svg">
<g id="#ba241dfc">
<path fill="#ba241d" opacity="1.00" d=" M 20.02 0.00 L 194.76 0.00 C 194.73 1.57 194.70 3.14 194.68 4.71 C 196.57 3.34 198.26 1.74 199.82 0.00 L 227.85 0.00 C 223.64 4.05 219.24 8.23 217.01 13.76 C 213.44 22.37 214.31 31.90 214.76 40.98 C 215.86 49.58 217.25 58.94 212.93 66.93 C 208.63 75.84 199.51 81.49 190.05 83.44 C 181.47 84.41 172.80 83.53 164.20 84.21 C 164.07 93.55 164.56 102.92 163.43 112.21 C 165.62 121.81 164.38 131.72 164.82 141.48 C 169.68 138.52 173.99 134.35 179.66 132.95 C 184.35 131.80 189.24 132.19 194.03 132.20 C 202.51 132.43 211.00 131.77 219.48 132.31 C 219.70 152.20 219.68 172.11 219.54 192.00 L 196.64 192.00 C 196.57 188.67 196.45 185.34 196.27 182.01 C 190.33 183.32 183.97 184.39 178.12 182.12 C 172.59 180.43 167.82 176.81 164.36 172.22 C 164.19 178.81 164.33 185.41 164.12 192.00 L 120.62 192.00 C 120.56 188.93 120.48 185.87 120.39 182.81 C 116.13 186.15 111.90 189.61 106.87 191.76 L 108.42 192.00 L 96.10 192.00 C 92.17 189.59 88.42 186.88 84.95 183.85 C 84.58 183.71 83.85 183.43 83.49 183.29 C 83.40 186.19 83.33 189.09 83.26 192.00 L 60.80 192.00 C 60.74 188.81 60.64 185.62 60.62 182.43 C 56.82 186.17 52.41 189.19 47.80 191.82 L 49.59 192.00 L 38.35 192.00 C 32.95 190.21 28.36 186.64 24.47 182.56 C 24.38 185.71 24.28 188.85 24.23 192.00 L 0.00 192.00 L 0.00 122.40 L 0.92 128.20 C 1.23 112.28 16.68 99.94 32.01 100.52 C 43.01 100.59 54.01 100.43 65.00 100.58 C 67.88 100.53 70.81 100.71 73.63 100.04 C 73.97 86.95 73.50 73.83 73.53 60.73 C 71.09 60.57 68.65 60.45 66.21 60.37 C 63.94 63.63 61.69 67.01 58.30 69.22 C 61.17 70.69 64.02 72.20 66.84 73.76 C 64.08 80.03 60.42 85.84 57.27 91.91 C 54.07 90.46 50.97 88.78 47.96 86.96 C 37.64 80.80 26.91 75.35 16.65 69.08 C 17.97 65.37 19.58 61.77 21.01 58.10 C 16.71 57.73 12.08 57.91 8.26 55.53 C 5.22 53.58 2.67 50.98 0.00 48.56 L 0.00 30.68 C 1.59 30.58 3.17 30.47 4.76 30.36 C 4.32 23.87 3.35 16.82 6.90 10.97 C 9.29 6.10 14.04 3.25 18.26 0.18 C 18.70 0.13 19.58 0.04 20.02 0.00 M 66.22 4.67 C 65.59 21.33 66.14 38.02 65.93 54.69 C 70.13 54.83 74.35 54.83 78.56 54.81 C 78.72 38.08 78.96 21.32 78.51 4.60 C 74.42 4.70 70.32 4.75 66.22 4.67 M 124.25 4.55 C 123.48 5.61 122.77 6.71 122.13 7.86 C 119.71 6.27 117.07 4.59 114.05 4.74 C 105.71 4.70 97.36 4.81 89.02 4.70 C 87.58 4.52 85.16 4.78 85.66 6.89 C 85.56 13.62 85.75 20.35 85.67 27.09 C 85.78 29.95 85.47 33.14 87.21 35.61 C 89.63 39.05 93.56 41.86 97.95 41.53 C 103.59 42.08 108.49 38.83 112.95 35.84 C 116.17 33.72 118.54 30.41 122.23 29.00 C 121.90 37.43 121.34 45.95 122.28 54.34 C 126.01 54.27 129.74 54.29 133.47 54.26 C 133.58 37.76 133.65 21.25 133.54 4.76 C 130.44 4.70 127.35 4.71 124.25 4.55 M 140.61 4.71 C 140.43 16.80 140.69 28.90 140.55 40.99 C 140.47 45.48 141.75 50.84 146.11 53.03 C 150.79 55.04 156.06 54.07 161.01 54.28 C 169.99 53.92 179.09 55.16 187.96 53.36 C 189.13 51.08 189.71 48.55 189.56 45.98 C 189.36 32.22 189.71 18.44 189.43 4.68 C 179.45 4.77 169.47 4.78 159.49 4.68 C 159.36 10.78 158.76 17.00 159.86 23.03 C 161.05 28.68 167.50 30.37 172.51 30.02 C 172.65 28.24 172.77 26.45 172.83 24.66 C 174.03 23.27 175.72 23.16 177.43 23.37 C 176.93 29.44 178.71 35.99 175.72 41.60 C 170.38 43.85 164.40 43.62 158.77 42.99 C 153.93 42.48 152.98 37.01 152.77 33.06 C 152.55 23.61 153.02 14.14 152.52 4.70 C 148.55 4.68 144.58 4.67 140.61 4.71 M 203.57 4.88 C 199.20 5.72 197.69 10.58 196.38 14.23 C 193.98 24.01 195.60 34.17 196.74 44.00 C 197.65 51.23 194.90 59.79 187.74 62.82 C 179.39 67.39 169.66 65.30 160.62 66.37 C 160.73 70.37 160.27 74.48 161.50 78.35 C 174.55 79.13 188.57 79.82 200.41 73.29 C 207.26 69.59 210.86 61.54 210.30 53.94 C 209.56 42.68 207.42 31.31 209.42 20.05 C 210.13 14.43 212.93 9.42 215.80 4.65 C 211.73 4.65 207.63 4.50 203.57 4.88 M 13.79 9.63 C 8.93 13.84 8.59 21.17 10.38 26.93 C 12.24 31.61 16.65 34.40 20.14 37.74 C 21.71 39.02 20.56 41.22 18.88 41.67 C 17.14 40.36 16.77 38.16 16.20 36.22 C 12.87 35.69 9.50 35.66 6.14 35.85 C 5.72 39.74 5.86 43.65 6.42 47.52 C 10.29 51.79 16.27 54.44 22.05 53.23 C 26.54 51.80 29.54 47.71 31.38 43.57 C 32.97 39.57 34.65 34.76 39.12 33.20 C 42.67 31.23 46.33 33.75 48.60 36.43 C 52.38 36.46 56.16 36.65 59.95 36.68 C 59.91 26.01 60.51 15.29 59.67 4.66 C 49.45 4.85 39.22 4.68 28.99 4.78 C 23.73 5.36 17.74 5.60 13.79 9.63 M 157.71 29.56 C 157.57 32.26 157.58 34.98 157.73 37.68 C 162.83 38.19 168.45 39.13 173.28 37.12 C 173.36 36.48 173.52 35.22 173.60 34.58 C 170.55 33.78 167.35 34.05 164.27 33.43 C 161.86 32.56 159.84 30.94 157.71 29.56 M 35.05 42.05 C 32.00 46.02 32.19 51.27 32.47 56.01 C 36.34 56.62 40.27 56.50 44.17 56.33 C 44.21 53.36 44.30 50.38 44.59 47.42 C 46.19 47.36 48.67 46.76 48.90 49.09 C 49.56 53.18 49.02 57.38 49.24 61.51 C 45.82 61.84 42.38 61.92 38.95 61.65 C 34.92 61.51 31.86 58.54 28.75 56.33 C 25.90 59.66 23.72 63.51 21.93 67.50 C 30.45 72.04 38.73 77.01 47.21 81.60 C 49.83 82.86 51.99 85.37 55.01 85.57 C 56.76 82.09 59.75 78.95 59.88 74.89 C 56.56 73.11 53.23 71.34 50.08 69.28 C 51.93 65.95 56.39 64.89 58.34 61.46 C 64.93 53.27 59.94 39.34 49.64 37.33 C 44.52 37.13 38.46 37.72 35.05 42.05 M 105.46 46.17 C 102.34 46.84 99.09 46.71 95.94 46.39 C 91.40 45.82 88.16 42.05 83.75 41.05 C 83.76 45.93 83.60 50.83 84.32 55.68 C 90.10 56.76 96.05 55.48 101.80 56.64 C 102.11 57.16 102.73 58.20 103.04 58.73 C 107.83 57.76 112.50 56.29 117.31 55.39 C 117.40 50.18 117.42 44.96 117.20 39.75 C 113.20 41.73 109.77 44.85 105.46 46.17 M 140.01 54.86 C 140.13 55.57 140.36 56.99 140.48 57.70 C 141.93 58.23 143.47 58.41 144.98 58.66 C 147.31 62.31 151.35 64.04 155.36 65.18 C 155.52 64.54 155.85 63.25 156.01 62.60 C 163.96 61.96 172.00 62.82 179.95 62.03 C 182.68 61.79 184.98 60.26 187.10 58.65 C 175.04 58.76 162.94 58.35 150.90 59.15 C 148.98 58.98 147.10 58.55 145.20 58.23 C 143.86 56.57 142.08 55.41 140.01 54.86 M 78.60 61.92 C 78.81 74.28 78.58 86.65 78.64 99.01 C 78.74 104.37 79.72 110.34 83.91 114.08 C 86.08 116.09 89.24 116.06 92.01 116.17 C 110.33 116.12 128.65 116.29 146.97 116.09 C 151.59 116.17 156.33 113.38 157.79 108.87 C 159.98 101.44 159.04 93.60 159.29 85.97 C 159.17 82.97 159.94 79.58 157.97 77.00 C 155.66 73.91 153.25 70.89 150.89 67.84 C 147.99 67.82 145.94 70.67 143.40 71.89 C 143.20 68.85 144.59 65.12 142.38 62.61 C 139.48 61.23 136.13 61.86 133.02 61.72 C 125.65 61.93 118.22 61.32 110.88 62.21 C 106.01 62.86 102.08 67.19 101.81 72.08 C 101.57 75.79 101.36 80.08 104.06 83.02 C 107.35 87.11 113.40 86.76 117.99 85.66 C 122.83 83.49 122.74 77.70 124.43 73.45 C 124.75 73.41 125.39 73.31 125.71 73.26 C 128.38 76.75 126.93 81.44 125.86 85.25 C 123.95 86.62 120.14 87.77 121.42 90.83 C 123.62 94.09 126.17 97.12 128.79 100.05 C 133.85 96.66 138.44 92.39 144.17 90.15 C 143.77 94.68 144.11 99.25 143.67 103.78 C 142.28 104.67 140.67 105.28 139.01 105.23 C 125.20 105.26 111.38 105.15 97.57 105.31 C 97.52 90.92 97.25 76.51 97.62 62.12 C 91.31 61.29 84.93 61.78 78.60 61.92 M 101.91 88.78 C 101.83 92.63 101.84 96.49 101.86 100.34 C 108.57 100.67 115.30 100.43 122.01 100.17 C 121.02 97.10 119.20 94.25 116.77 92.13 C 112.11 91.08 106.89 92.13 102.88 88.80 C 102.64 88.79 102.15 88.78 101.91 88.78 M 136.02 100.42 C 138.14 100.88 140.15 100.49 140.94 98.28 C 138.89 97.93 137.32 98.98 136.02 100.42 M 31.11 105.61 C 23.76 105.84 16.39 108.90 11.63 114.62 C 6.20 120.72 5.33 129.23 5.41 137.06 C 5.59 153.79 5.21 170.54 5.64 187.26 C 10.26 187.34 14.89 187.34 19.51 187.26 C 19.76 174.71 19.55 162.15 19.49 149.59 C 35.06 149.23 50.65 149.45 66.23 149.46 C 66.10 151.00 65.96 152.54 65.81 154.08 C 56.89 154.19 47.97 153.93 39.06 154.25 C 31.03 155.04 26.30 163.53 26.41 170.98 C 25.96 177.11 30.03 182.81 35.46 185.33 C 39.62 186.85 44.37 186.97 48.51 185.29 C 54.22 182.77 58.20 176.64 57.86 170.36 C 52.12 170.16 46.38 170.55 40.65 170.13 C 40.58 168.65 40.53 167.18 40.48 165.70 C 48.86 164.74 57.31 165.51 65.72 165.28 C 66.28 172.38 65.41 179.53 66.23 186.62 C 70.25 186.59 74.27 186.57 78.28 186.37 C 78.30 171.56 78.20 156.75 78.33 141.93 C 78.28 140.40 78.42 138.82 77.94 137.34 C 61.98 137.03 45.99 137.37 30.02 137.24 C 26.66 137.07 23.18 137.74 19.90 136.94 C 19.12 132.17 18.93 126.37 22.51 122.59 C 25.88 118.89 31.36 118.84 35.98 118.34 C 49.89 118.09 63.81 118.41 77.72 118.20 C 77.85 114.00 77.66 109.80 77.36 105.61 C 76.26 105.33 75.15 105.09 74.03 104.91 C 59.75 105.85 45.39 104.62 31.11 105.61 M 117.61 119.80 C 117.32 123.72 116.36 128.09 118.38 131.70 C 122.06 134.47 126.93 133.03 131.17 133.37 C 132.00 132.19 132.02 129.72 133.92 129.80 C 142.10 129.29 150.31 129.92 158.50 129.51 C 158.53 126.21 158.92 122.87 158.42 119.59 C 153.31 119.13 148.17 119.66 143.06 119.53 C 134.58 119.66 126.08 119.20 117.61 119.80 M 77.98 124.06 C 62.98 123.91 47.96 123.67 32.96 124.15 C 30.57 124.07 28.46 125.23 26.50 126.44 C 25.79 128.15 25.10 129.87 24.40 131.59 C 29.22 132.58 34.14 132.06 39.02 132.09 C 50.34 132.08 61.66 132.27 72.97 131.91 C 76.79 131.95 81.29 131.31 84.02 134.63 C 92.53 129.40 102.81 132.54 112.16 131.29 C 112.23 128.13 112.28 124.96 112.25 121.80 C 103.85 121.20 95.43 121.66 87.02 121.46 C 83.72 121.28 81.36 124.48 77.98 124.06 M 200.99 138.38 C 196.39 137.43 191.68 137.78 187.02 137.74 C 182.93 137.62 178.58 137.78 175.05 140.14 C 167.92 144.32 165.10 153.11 165.67 160.99 C 165.79 166.48 168.84 171.81 173.65 174.53 C 179.42 178.39 186.84 179.54 193.47 177.36 C 194.09 176.73 194.72 176.11 195.35 175.49 C 195.41 169.89 195.36 164.30 195.30 158.71 C 192.77 156.24 189.07 156.34 185.85 157.04 C 183.06 157.70 181.21 160.18 178.44 160.93 C 177.72 156.22 180.12 150.77 184.99 149.47 C 190.60 148.00 196.48 148.96 202.21 148.60 C 202.45 161.25 202.04 173.92 202.48 186.57 C 206.25 186.55 210.03 186.54 213.79 186.34 C 213.81 172.23 213.81 158.12 213.91 144.01 C 213.92 141.59 213.76 139.18 213.48 136.78 C 209.27 136.73 204.93 136.69 200.99 138.38 M 88.00 140.06 C 85.63 143.57 86.29 148.06 86.50 152.04 C 86.64 155.28 89.71 157.07 91.90 158.96 C 86.31 164.16 85.19 172.85 88.46 179.59 C 93.44 188.73 108.93 188.94 114.04 179.80 C 116.51 175.77 115.76 170.83 115.71 166.34 C 118.90 165.63 122.17 165.64 125.41 165.74 C 125.88 172.93 125.22 180.14 125.75 187.33 C 130.35 187.27 135.00 187.65 139.56 186.82 C 139.32 170.32 139.57 153.82 139.49 137.31 C 125.33 137.15 111.17 137.33 97.01 137.20 C 93.85 137.18 90.11 137.36 88.00 140.06 M 145.85 137.36 C 146.52 154.00 145.67 170.68 146.24 187.31 C 150.24 186.78 155.11 188.56 158.52 186.22 C 158.67 176.82 158.29 167.42 158.42 158.03 C 158.57 151.12 157.99 144.14 159.45 137.34 C 154.92 137.12 150.38 137.12 145.85 137.36 M 23.35 153.84 C 23.72 155.17 24.12 156.49 24.50 157.82 C 25.53 156.85 26.59 155.92 27.66 154.99 C 27.58 154.67 27.43 154.02 27.36 153.70 C 26.02 153.75 24.69 153.79 23.35 153.84 Z" />
<path fill="#ba241d" opacity="1.00" d=" M 22.26 18.44 C 24.05 17.51 25.83 16.21 27.96 16.45 C 34.85 16.51 41.75 16.55 48.64 16.37 C 49.52 18.58 49.22 20.91 48.26 23.03 C 43.55 21.63 38.28 20.29 33.56 22.26 C 30.62 23.49 29.78 27.15 27.01 28.47 C 23.84 26.21 21.44 22.47 22.26 18.44 Z" />
<path fill="#ba241d" opacity="1.00" d=" M 97.92 17.31 C 104.41 17.29 110.91 16.98 117.40 17.38 C 115.87 19.67 113.15 20.53 110.98 22.03 C 106.88 24.45 103.39 28.37 98.40 28.89 C 97.95 25.05 97.95 21.17 97.92 17.31 Z" />
<path fill="#ba241d" opacity="1.00" d=" M 101.69 149.43 C 108.45 148.37 115.35 148.58 122.16 148.83 C 124.90 148.96 126.13 151.04 125.86 153.58 C 120.93 154.41 115.93 153.93 110.97 154.10 C 108.87 154.04 106.63 154.39 104.65 153.51 C 103.30 152.45 102.44 150.94 101.69 149.43 Z" />
<path fill="#ba241d" opacity="1.00" d=" M 97.42 165.73 C 102.61 166.77 102.54 172.95 101.94 177.07 C 101.93 179.13 99.24 178.97 98.14 177.95 C 97.16 173.97 97.50 169.80 97.42 165.73 Z" />
</g>
<g id="#f9ffffff">
<path fill="#f9ffff" opacity="1.00" d=" M 66.22 4.67 C 70.32 4.75 74.42 4.70 78.51 4.60 C 78.96 21.32 78.72 38.08 78.56 54.81 C 74.35 54.83 70.13 54.83 65.93 54.69 C 66.14 38.02 65.59 21.33 66.22 4.67 Z" />
<path fill="#f9ffff" opacity="1.00" d=" M 124.25 4.55 C 127.35 4.71 130.44 4.70 133.54 4.76 C 133.65 21.25 133.58 37.76 133.47 54.26 C 129.74 54.29 126.01 54.27 122.28 54.34 C 121.34 45.95 121.90 37.43 122.23 29.00 C 118.54 30.41 116.17 33.72 112.95 35.84 C 108.49 38.83 103.59 42.08 97.95 41.53 C 93.56 41.86 89.63 39.05 87.21 35.61 C 85.47 33.14 85.78 29.95 85.67 27.09 C 85.75 20.35 85.56 13.62 85.66 6.89 C 85.16 4.78 87.58 4.52 89.02 4.70 C 97.36 4.81 105.71 4.70 114.05 4.74 C 117.07 4.59 119.71 6.27 122.13 7.86 C 122.77 6.71 123.48 5.61 124.25 4.55 M 97.92 17.31 C 97.95 21.17 97.95 25.05 98.40 28.89 C 103.39 28.37 106.88 24.45 110.98 22.03 C 113.15 20.53 115.87 19.67 117.40 17.38 C 110.91 16.98 104.41 17.29 97.92 17.31 Z" />
<path fill="#f9ffff" opacity="1.00" d=" M 140.61 4.71 C 144.58 4.67 148.55 4.68 152.52 4.70 C 153.02 14.14 152.55 23.61 152.77 33.06 C 152.98 37.01 153.93 42.48 158.77 42.99 C 164.40 43.62 170.38 43.85 175.72 41.60 C 178.71 35.99 176.93 29.44 177.43 23.37 C 175.72 23.16 174.03 23.27 172.83 24.66 C 172.77 26.45 172.65 28.24 172.51 30.02 C 167.50 30.37 161.05 28.68 159.86 23.03 C 158.76 17.00 159.36 10.78 159.49 4.68 C 169.47 4.78 179.45 4.77 189.43 4.68 C 189.71 18.44 189.36 32.22 189.56 45.98 C 189.71 48.55 189.13 51.08 187.96 53.36 C 179.09 55.16 169.99 53.92 161.01 54.28 C 156.06 54.07 150.79 55.04 146.11 53.03 C 141.75 50.84 140.47 45.48 140.55 40.99 C 140.69 28.90 140.43 16.80 140.61 4.71 Z" />
<path fill="#f9ffff" opacity="1.00" d=" M 203.57 4.88 C 207.63 4.50 211.73 4.65 215.80 4.65 C 212.93 9.42 210.13 14.43 209.42 20.05 C 207.42 31.31 209.56 42.68 210.30 53.94 C 210.86 61.54 207.26 69.59 200.41 73.29 C 188.57 79.82 174.55 79.13 161.50 78.35 C 160.27 74.48 160.73 70.37 160.62 66.37 C 169.66 65.30 179.39 67.39 187.74 62.82 C 194.90 59.79 197.65 51.23 196.74 44.00 C 195.60 34.17 193.98 24.01 196.38 14.23 C 197.69 10.58 199.20 5.72 203.57 4.88 Z" />
<path fill="#f9ffff" opacity="1.00" d=" M 13.79 9.63 C 17.74 5.60 23.73 5.36 28.99 4.78 C 39.22 4.68 49.45 4.85 59.67 4.66 C 60.51 15.29 59.91 26.01 59.95 36.68 C 56.16 36.65 52.38 36.46 48.60 36.43 C 46.33 33.75 42.67 31.23 39.12 33.20 C 34.65 34.76 32.97 39.57 31.38 43.57 C 29.54 47.71 26.54 51.80 22.05 53.23 C 16.27 54.44 10.29 51.79 6.42 47.52 C 5.86 43.65 5.72 39.74 6.14 35.85 C 9.50 35.66 12.87 35.69 16.20 36.22 C 16.77 38.16 17.14 40.36 18.88 41.67 C 20.56 41.22 21.71 39.02 20.14 37.74 C 16.65 34.40 12.24 31.61 10.38 26.93 C 8.59 21.17 8.93 13.84 13.79 9.63 M 22.26 18.44 C 21.44 22.47 23.84 26.21 27.01 28.47 C 29.78 27.15 30.62 23.49 33.56 22.26 C 38.28 20.29 43.55 21.63 48.26 23.03 C 49.22 20.91 49.52 18.58 48.64 16.37 C 41.75 16.55 34.85 16.51 27.96 16.45 C 25.83 16.21 24.05 17.51 22.26 18.44 Z" />
<path fill="#f9ffff" opacity="1.00" d=" M 35.05 42.05 C 38.46 37.72 44.52 37.13 49.64 37.33 C 59.94 39.34 64.93 53.27 58.34 61.46 C 56.39 64.89 51.93 65.95 50.08 69.28 C 53.23 71.34 56.56 73.11 59.88 74.89 C 59.75 78.95 56.76 82.09 55.01 85.57 C 51.99 85.37 49.83 82.86 47.21 81.60 C 38.73 77.01 30.45 72.04 21.93 67.50 C 23.72 63.51 25.90 59.66 28.75 56.33 C 31.86 58.54 34.92 61.51 38.95 61.65 C 42.38 61.92 45.82 61.84 49.24 61.51 C 49.02 57.38 49.56 53.18 48.90 49.09 C 48.67 46.76 46.19 47.36 44.59 47.42 C 44.30 50.38 44.21 53.36 44.17 56.33 C 40.27 56.50 36.34 56.62 32.47 56.01 C 32.19 51.27 32.00 46.02 35.05 42.05 Z" />
<path fill="#f9ffff" opacity="1.00" d=" M 78.60 61.92 C 84.93 61.78 91.31 61.29 97.62 62.12 C 97.25 76.51 97.52 90.92 97.57 105.31 C 111.38 105.15 125.20 105.26 139.01 105.23 C 140.67 105.28 142.28 104.67 143.67 103.78 C 144.11 99.25 143.77 94.68 144.17 90.15 C 138.44 92.39 133.85 96.66 128.79 100.05 C 126.17 97.12 123.62 94.09 121.42 90.83 C 120.14 87.77 123.95 86.62 125.86 85.25 C 126.93 81.44 128.38 76.75 125.71 73.26 C 125.39 73.31 124.75 73.41 124.43 73.45 C 122.74 77.70 122.83 83.49 117.99 85.66 C 113.40 86.76 107.35 87.11 104.06 83.02 C 101.36 80.08 101.57 75.79 101.81 72.08 C 102.08 67.19 106.01 62.86 110.88 62.21 C 118.22 61.32 125.65 61.93 133.02 61.72 C 136.13 61.86 139.48 61.23 142.38 62.61 C 144.59 65.12 143.20 68.85 143.40 71.89 C 145.94 70.67 147.99 67.82 150.89 67.84 C 153.25 70.89 155.66 73.91 157.97 77.00 C 159.94 79.58 159.17 82.97 159.29 85.97 C 159.04 93.60 159.98 101.44 157.79 108.87 C 156.33 113.38 151.59 116.17 146.97 116.09 C 128.65 116.29 110.33 116.12 92.01 116.17 C 89.24 116.06 86.08 116.09 83.91 114.08 C 79.72 110.34 78.74 104.37 78.64 99.01 C 78.58 86.65 78.81 74.28 78.60 61.92 Z" />
<path fill="#f9ffff" opacity="1.00" d=" M 31.11 105.61 C 45.39 104.62 59.75 105.85 74.03 104.91 C 75.15 105.09 76.26 105.33 77.36 105.61 C 77.66 109.80 77.85 114.00 77.72 118.20 C 63.81 118.41 49.89 118.09 35.98 118.34 C 31.36 118.84 25.88 118.89 22.51 122.59 C 18.93 126.37 19.12 132.17 19.90 136.94 C 23.18 137.74 26.66 137.07 30.02 137.24 C 45.99 137.37 61.98 137.03 77.94 137.34 C 78.42 138.82 78.28 140.40 78.33 141.93 C 78.20 156.75 78.30 171.56 78.28 186.37 C 74.27 186.57 70.25 186.59 66.23 186.62 C 65.41 179.53 66.28 172.38 65.72 165.28 C 57.31 165.51 48.86 164.74 40.48 165.70 C 40.53 167.18 40.58 168.65 40.65 170.13 C 46.38 170.55 52.12 170.16 57.86 170.36 C 58.20 176.64 54.22 182.77 48.51 185.29 C 44.37 186.97 39.62 186.85 35.46 185.33 C 30.03 182.81 25.96 177.11 26.41 170.98 C 26.30 163.53 31.03 155.04 39.06 154.25 C 47.97 153.93 56.89 154.19 65.81 154.08 C 65.96 152.54 66.10 151.00 66.23 149.46 C 50.65 149.45 35.06 149.23 19.49 149.59 C 19.55 162.15 19.76 174.71 19.51 187.26 C 14.89 187.34 10.26 187.34 5.64 187.26 C 5.21 170.54 5.59 153.79 5.41 137.06 C 5.33 129.23 6.20 120.72 11.63 114.62 C 16.39 108.90 23.76 105.84 31.11 105.61 Z" />
<path fill="#f9ffff" opacity="1.00" d=" M 117.61 119.80 C 126.08 119.20 134.58 119.66 143.06 119.53 C 148.17 119.66 153.31 119.13 158.42 119.59 C 158.92 122.87 158.53 126.21 158.50 129.51 C 150.31 129.92 142.10 129.29 133.92 129.80 C 132.02 129.72 132.00 132.19 131.17 133.37 C 126.93 133.03 122.06 134.47 118.38 131.70 C 116.36 128.09 117.32 123.72 117.61 119.80 Z" />
<path fill="#f9ffff" opacity="1.00" d=" M 200.99 138.38 C 204.93 136.69 209.27 136.73 213.48 136.78 C 213.76 139.18 213.92 141.59 213.91 144.01 C 213.81 158.12 213.81 172.23 213.79 186.34 C 210.03 186.54 206.25 186.55 202.48 186.57 C 202.04 173.92 202.45 161.25 202.21 148.60 C 196.48 148.96 190.60 148.00 184.99 149.47 C 180.12 150.77 177.72 156.22 178.44 160.93 C 181.21 160.18 183.06 157.70 185.85 157.04 C 189.07 156.34 192.77 156.24 195.30 158.71 C 195.36 164.30 195.41 169.89 195.35 175.49 C 194.72 176.11 194.09 176.73 193.47 177.36 C 186.84 179.54 179.42 178.39 173.65 174.53 C 168.84 171.81 165.79 166.48 165.67 160.99 C 165.10 153.11 167.92 144.32 175.05 140.14 C 178.58 137.78 182.93 137.62 187.02 137.74 C 191.68 137.78 196.39 137.43 200.99 138.38 Z" />
<path fill="#f9ffff" opacity="1.00" d=" M 88.00 140.06 C 90.11 137.36 93.85 137.18 97.01 137.20 C 111.17 137.33 125.33 137.15 139.49 137.31 C 139.57 153.82 139.32 170.32 139.56 186.82 C 135.00 187.65 130.35 187.27 125.75 187.33 C 125.22 180.14 125.88 172.93 125.41 165.74 C 122.17 165.64 118.90 165.63 115.71 166.34 C 115.76 170.83 116.51 175.77 114.04 179.80 C 108.93 188.94 93.44 188.73 88.46 179.59 C 85.19 172.85 86.31 164.16 91.90 158.96 C 89.71 157.07 86.64 155.28 86.50 152.04 C 86.29 148.06 85.63 143.57 88.00 140.06 M 101.69 149.43 C 102.44 150.94 103.30 152.45 104.65 153.51 C 106.63 154.39 108.87 154.04 110.97 154.10 C 115.93 153.93 120.93 154.41 125.86 153.58 C 126.13 151.04 124.90 148.96 122.16 148.83 C 115.35 148.58 108.45 148.37 101.69 149.43 M 97.42 165.73 C 97.50 169.80 97.16 173.97 98.14 177.95 C 99.24 178.97 101.93 179.13 101.94 177.07 C 102.54 172.95 102.61 166.77 97.42 165.73 Z" />
<path fill="#f9ffff" opacity="1.00" d=" M 145.85 137.36 C 150.38 137.12 154.92 137.12 159.45 137.34 C 157.99 144.14 158.57 151.12 158.42 158.03 C 158.29 167.42 158.67 176.82 158.52 186.22 C 155.11 188.56 150.24 186.78 146.24 187.31 C 145.67 170.68 146.52 154.00 145.85 137.36 Z" />
</g>
</svg>
